HIERARCHY
ROOT Bip001_Pelvis
{
  OFFSET 7.937 94.8971 -8.5489
  CHANNELS 6 Xposition Yposition Zposition Zrotation Xrotation Yrotation
  JOINT Bip001_Spine
  {
    OFFSET 1.44608e-005 10.4157 -0.0118244
    CHANNELS 3 Zrotation Xrotation Yrotation
    JOINT Bip001_L_Thigh
    {
      OFFSET 11.2582 -10.4157 0.0118432
      CHANNELS 3 Zrotation Xrotation Yrotation
      JOINT Bip001_L_Calf
      {
        OFFSET -0.720717 -44.8687 0.366937
        CHANNELS 3 Zrotation Xrotation Yrotation
        JOINT Bip001_L_Foot
        {
          OFFSET -0.664439 -41.3745 -3.62995
          CHANNELS 3 Zrotation Xrotation Yrotation
          JOINT Bip001_L_Toe0
          {
            OFFSET 0.0541047 -10.4146 13.4033
            CHANNELS 3 Zrotation Xrotation Yrotation
            End Site
            {
              OFFSET -1.04503e-005 0 7.70137
            }
          }
        }
      }
    }
    JOINT Bip001_R_Thigh
    {
      OFFSET -11.2582 -10.4156 0.0118122
      CHANNELS 3 Zrotation Xrotation Yrotation
      JOINT Bip001_R_Calf
      {
        OFFSET 0.72059 -44.8687 0.36676
        CHANNELS 3 Zrotation Xrotation Yrotation
        JOINT Bip001_R_Foot
        {
          OFFSET 0.664321 -41.3745 -3.62979
          CHANNELS 3 Zrotation Xrotation Yrotation
          JOINT Bip001_R_Toe0
          {
            OFFSET -0.05417 -10.4146 13.4033
            CHANNELS 3 Zrotation Xrotation Yrotation
            End Site
            {
              OFFSET -1.04873e-005 0 7.70137
            }
          }
        }
      }
    }
    JOINT Bip001_Spine1
    {
      OFFSET 1.90638e-005 14.8539 1.10727
      CHANNELS 3 Zrotation Xrotation Yrotation
      JOINT Bip001_Spine2
      {
        OFFSET 2.28934e-005 14.7848 -1.7233
        CHANNELS 3 Zrotation Xrotation Yrotation
        JOINT Bip001_Neck
        {
          OFFSET 2.24514e-005 15.6905 -0.498826
          CHANNELS 3 Zrotation Xrotation Yrotation
          JOINT Bip001_L_Clavicle
          {
            OFFSET 6.17691 -0.000591152 0.00852867
            CHANNELS 3 Zrotation Xrotation Yrotation
            JOINT Bip001_L_UpperArm
            {
              OFFSET 11.773 -0.0611878 0.00197697
              CHANNELS 3 Zrotation Xrotation Yrotation
              JOINT Bip001_L_Forearm
              {
                OFFSET 26.4515 0.0817568 -2.19579
                CHANNELS 3 Zrotation Xrotation Yrotation
                JOINT Bip001_L_Hand
                {
                  OFFSET 32.8677 0.156744 1.67112
                  CHANNELS 3 Zrotation Xrotation Yrotation
                  JOINT Bip001_L_Finger0
                  {
                    OFFSET 6.16268 -2.25226 6.01674
                    CHANNELS 3 Zrotation Xrotation Yrotation
                    End Site
                    {
                      OFFSET 4.30499 -1.46662 0.618148
                    }
                  }
                  JOINT Bip001_L_Finger1
                  {
                    OFFSET 11.2957 -0.718374 -0.201963
                    CHANNELS 3 Zrotation Xrotation Yrotation
                    End Site
                    {
                      OFFSET 6.31952 -0.405163 -0.0802303
                    }
                  }
                }
              }
            }
          }
          JOINT Bip001_R_Clavicle
          {
            OFFSET -6.17691 -0.000574027 0.00851165
            CHANNELS 3 Zrotation Xrotation Yrotation
            JOINT Bip001_R_UpperArm
            {
              OFFSET -11.773 -0.0611516 0.00194365
              CHANNELS 3 Zrotation Xrotation Yrotation
              JOINT Bip001_R_Forearm
              {
                OFFSET -26.4514 0.0822334 -2.19736
                CHANNELS 3 Zrotation Xrotation Yrotation
                JOINT Bip001_R_Hand
                {
                  OFFSET -32.8677 0.156817 1.67144
                  CHANNELS 3 Zrotation Xrotation Yrotation
                  JOINT Bip001_R_Finger0
                  {
                    OFFSET -6.1627 -2.25224 6.0167
                    CHANNELS 3 Zrotation Xrotation Yrotation
                    End Site
                    {
                      OFFSET -4.30499 -1.46662 0.618134
                    }
                  }
                  JOINT Bip001_R_Finger1
                  {
                    OFFSET -11.2958 -0.718344 -0.201994
                    CHANNELS 3 Zrotation Xrotation Yrotation
                    End Site
                    {
                      OFFSET -6.31952 -0.405146 -0.0802475
                    }
                  }
                }
              }
            }
          }
          JOINT Bip001_Head
          {
            OFFSET 1.11782e-005 11.4912 2.09908
            CHANNELS 3 Zrotation Xrotation Yrotation
            End Site
            {
              OFFSET 2.95144e-005 21.2823 -2.83069e-005
            }
          }
        }
      }
    }
  }
}
MOTION
Frames:	13
Frame Time:	0.04
8.13338 95.3359 -6.34993 -1.31469 -5.08638 -7.93741 0.085551 0.990059 -0.744781 6.14595 -0.656191 11.6403 -1.6688 15.3812 2.72212 -3.42587 -9.18526 2.3393 0.808355 -9.66377 0.519003 -7.37272 -3.09766 4.42055 0.177771 14.8807 6.41407 0.960238 -8.02931 -8.60512 -0.786777 -11.6671 0.652057 0.0525896 1.98151 -1.49257 0.0525612 1.9815 -1.49296 -1.51122 -1.07533 -0.437947 -26.8979 6.55805 -11.8291 -51.1265 41.9956 6.8185 13.1357 -2.7936 -26.5277 0.0298158 -0.241836 -2.23467 8.82781e-032 3.18055e-015 -1.59028e-015 1.76556e-031 6.36111e-015 -1.59028e-015 30.8968 5.71539 8.75249 56.0653 18.8456 -24.7301 -13.6407 -10.1961 55.1035 -1.61894 3.01648 -12.5251 -2.38542e-015 6.36111e-015 -0 -3.18055e-015 6.36111e-015 -0 -2.27454 3.94165 -0.273184 
8.34042 95.2311 -6.40986 -1.34158 -5.11316 -7.44398 0.0964431 1.0055 -0.723111 6.12405 -1.24825 11.9299 -1.47519 16.3392 1.60961 -3.22287 -9.63261 2.60453 0.818559 -9.64899 0.571696 -7.40099 -3.23648 1.82852 -0.678584 15.3836 7.47444 1.37103 -8.28829 -7.45905 -0.735153 -11.7091 0.698923 0.073402 2.01053 -1.44886 0.0734017 2.01054 -1.44885 -2.07269 -1.3102 -0.0971009 -26.4714 6.84421 -11.7286 -50.8275 41.4661 6.70911 13.0231 -1.19653 -26.1067 -0.392681 -0.198942 -2.63553 3.18055e-015 4.77083e-015 -3.18055e-015 3.18055e-015 1.59028e-015 -3.97569e-015 31.2084 5.78273 8.55856 51.885 10.7916 -24.1137 -18.738 -4.56034 64.5443 -7.18274 4.44441 -9.3803 2.38542e-015 -1.59028e-015 -3.18055e-015 3.18055e-015 -3.18056e-015 -0 -1.9493 4.05458 -0.182126 
8.57292 95.1238 -6.51656 -1.3445 -5.069 -6.66564 0.0736072 0.989027 -0.642188 6.13131 -1.97463 11.3878 -1.48642 17.2673 0.803636 -2.91344 -10.0455 3.02975 0.860272 -9.60573 0.703444 -7.35872 -3.34119 1.18169 -1.01216 15.8023 7.71094 1.50266 -8.54435 -7.72373 -0.635869 -11.7191 0.592017 0.0387387 1.97783 -1.28654 0.0383785 1.97782 -1.28646 -1.8256 -1.17553 -0.0714541 -26.7173 6.71987 -11.7826 -50.954 41.3729 7.0306 13.1262 -0.0940445 -25.5698 -1.03655 -0.216411 -2.70788 -3.18055e-015 -1.59028e-015 2.38542e-015 -6.36111e-015 1.59028e-015 1.59028e-015 30.4394 5.52512 8.42291 47.4217 2.49868 -23.0732 -24.1594 0.365026 74.5183 -12.5584 6.11475 -7.52348 3.57812e-015 8.74652e-015 9.54166e-015 5.1684e-015 7.95139e-015 6.36111e-015 -2.40821 3.94429 0.0286159 
8.81885 95.0195 -6.67228 -1.28427 -4.88704 -5.52866 0.010669 0.941147 -0.524751 6.15672 -2.93348 10.8054 -1.52403 18.2265 0.112031 -2.59416 -10.3332 3.17366 0.898551 -9.60463 0.681816 -7.44075 -3.50626 0.984008 -0.870608 16.2441 7.39593 1.39785 -8.792 -8.38164 -0.485381 -11.7204 0.492123 -0.0689314 1.88262 -1.0504 -0.0689315 1.88262 -1.0504 -1.8047 -1.12445 -0.16385 -26.7728 6.63645 -11.7072 -51.1428 40.9015 7.53732 13.4234 0.939633 -25.0962 -1.49958 -0.187227 -2.40659 8.82781e-032 3.18055e-015 -1.59028e-015 -3.18055e-015 3.18056e-015 -7.95139e-016 30.1119 5.4377 8.37655 42.289 -6.20514 -21.9279 -29.5294 4.01773 84.8368 -16.382 6.60929 -4.99801 0 1.78906e-015 -0 1.59028e-015 4.17448e-015 -0 -2.24735 4.26738 -0.0915461 
9.01657 94.9239 -6.8195 -1.2672 -4.60083 -4.15447 -0.0893438 0.894138 -0.3295 6.33974 -4.04165 10.4188 -1.53739 19.2232 -0.610642 -2.31797 -10.5394 2.87435 0.920481 -9.64342 0.62392 -7.35161 -3.61978 0.923622 -0.751476 16.55 6.69132 1.31225 -9.00739 -9.09443 -0.314662 -11.7203 0.363404 -0.246472 1.7888 -0.658258 -0.246471 1.78886 -0.658251 -1.09722 -0.978276 -0.612934 -27.1054 6.32577 -11.6351 -51.8015 40.4581 8.37238 13.5904 1.29382 -24.7805 -2.42405 -0.187754 -2.23581 -3.18055e-015 0 -0 -3.18055e-015 0 1.59028e-015 29.6254 5.46031 8.53836 38.4295 -9.24954 -20.3583 -33.1854 1.66756 92.4244 -20.5474 6.86983 -3.53214 1.59028e-015 4.77083e-015 3.18055e-015 3.18055e-015 3.97569e-015 3.18055e-015 -2.80962 3.90864 -0.190447 
9.21153 94.8096 -6.85727 -1.20444 -4.78818 -1.7095 -0.18481 0.951622 -0.284639 6.37492 -4.97205 9.73035 -1.36204 20.2968 -2.09752 -1.96085 -10.7225 2.62824 0.921306 -9.66787 0.610825 -7.34416 -2.9876 -0.680402 -0.926604 16.771 6.78344 1.22281 -9.42671 -9.799 -0.132231 -11.7197 0.150275 -0.411157 1.90428 -0.565969 -0.41096 1.90426 -0.56595 -0.850541 -1.06574 -0.986858 -27.0218 6.3529 -11.7764 -52.1289 39.5896 8.91754 13.5883 2.31867 -24.3651 -2.389 -0.239657 -1.75969 3.18055e-015 -6.36111e-015 -3.18055e-015 3.18055e-015 -6.36111e-015 -0 29.416 5.65148 8.61024 34.2603 -12.1568 -17.9012 -35.7207 -1.37243 98.983 -24.1873 7.46574 -3.63995 -1.43452e-030 1.03368e-014 7.95139e-015 3.18055e-015 1.11319e-014 7.95139e-015 -2.75872 3.78045 -0.500577 
9.32865 94.669 -7.10468 -1.03579 -4.00411 -0.442642 -0.25191 0.799993 -0.0251097 6.38766 -6.4773 10.1083 -1.1363 21.2435 -3.18445 -1.75735 -10.8208 1.94929 0.913293 -9.7008 0.576336 -7.399 -3.83189 -0.169647 -0.662114 17.6329 5.73194 1.10503 -9.90594 -10.6646 -0.0299112 -11.681 -0.0729964 -0.530634 1.6001 -0.046709 -0.530637 1.6001 -0.0467093 -1.04353 -1.22321 -1.05732 -26.9479 6.49747 -11.6927 -52.3141 38.6825 9.60483 12.9677 1.26134 -24.2154 -2.33881 -0.0722767 -2.10917 -6.36111e-015 -3.18055e-015 1.59028e-015 -9.54166e-015 -3.18056e-015 1.59028e-015 28.5739 5.79267 8.90284 30.9078 -15.5622 -15.0731 -36.4275 -3.77812 104.66 -26.5916 7.55696 -2.36153 6.36111e-015 1.19271e-015 -7.95139e-016 6.36111e-015 0 -0 -2.74771 3.89856 -0.623245 
9.42198 94.499 -7.21999 -0.947143 -3.57745 1.8939 -0.310884 0.71348 0.0104853 6.21406 -7.96017 8.81562 -0.926958 22.3943 -4.08936 -1.55404 -11.0262 1.79002 0.920801 -9.70196 0.626169 -7.41138 -3.97715 -1.15219 -0.663143 18.3761 5.30409 0.961403 -10.5344 -11.4566 0.125442 -11.6593 -0.277995 -0.626223 1.42689 0.0254633 -0.626036 1.42689 0.0252976 -1.12661 -1.22198 -1.08087 -26.991 6.40108 -11.3701 -52.0312 37.6421 9.40506 12.6728 2.96476 -23.0931 -2.30286 -0.131856 -2.0638 -6.36111e-015 -6.36111e-015 3.18055e-015 -3.18055e-015 -9.54167e-015 3.18055e-015 27.3194 5.79366 9.45534 28.7762 -18.1863 -10.0546 -36.9666 -6.14362 108.076 -28.8252 7.1939 -1.80547 6.36111e-015 -3.97569e-016 -3.97569e-016 3.18055e-015 3.97569e-016 -0 -2.78748 3.85086 -0.659205 
9.4002 94.3375 -7.29331 -1.04108 -3.02076 4.35147 -0.358948 0.58452 0.134344 6.2399 -9.54227 7.32598 -0.863945 23.5568 -4.73818 -1.40678 -11.2305 1.39949 0.924591 -9.70274 0.640203 -7.17583 -4.05583 -2.10376 -0.668735 18.9221 4.68763 0.798628 -11.1029 -12.3329 0.26445 -11.6378 -0.491876 -0.696769 1.16819 0.273038 -0.696773 1.1682 0.273042 -1.02114 -1.32125 -1.41246 -27.177 6.37973 -11.1384 -52.787 39.8094 10.8456 12.7055 1.27953 -22.9189 -2.73781 -0.0783503 -1.07815 1.59028e-015 3.18055e-015 -3.18055e-015 3.18055e-015 3.18056e-015 -4.77083e-015 25.6173 5.89065 9.99044 27.6783 -20.3758 -3.56955 -37.6446 -7.71089 109.573 -31.1313 7.62625 -1.82847 3.18055e-015 1.59028e-015 -7.95139e-016 4.41391e-032 3.18056e-015 -7.95139e-016 -3.05297 4.0435 -0.877313 
9.4125 94.1811 -7.32088 -0.954774 -2.40017 7.16651 -0.477465 0.450957 0.302272 6.0096 -11.0648 6.66341 -0.394399 24.4407 -6.12473 -1.30096 -11.2318 0.508706 0.919423 -9.73101 0.575271 -7.19625 -4.09086 -3.65379 -0.633802 19.5793 4.15369 0.628509 -11.8779 -13.0939 0.393578 -11.6042 -0.710772 -0.897309 0.899518 0.609616 -0.897309 0.899518 0.609621 -0.758008 -1.48877 -1.98257 -27.4661 6.39095 -10.9547 -52.8097 40.4535 11.2478 12.7452 1.84531 -22.0057 -3.40304 -0.188893 -0.999554 -0 -9.54166e-015 -0 8.82782e-032 -3.18056e-015 1.59028e-015 23.7956 6.07402 10.5488 27.3474 -23.1021 3.72947 -39.9278 -8.92981 109.371 -31.6814 6.98651 -2.03457 1.76556e-031 3.18055e-015 -3.18055e-015 0 0 -3.18055e-015 -3.02091 4.18591 -1.35864 
9.39348 94.0793 -7.35875 -0.892369 -1.84053 9.75903 -0.584665 0.343399 0.487542 5.70256 -12.3226 5.66991 -0.130056 24.9275 -7.62089 -1.08609 -11.0806 0.263104 0.927049 -9.73285 0.543735 -7.16057 -4.07124 -4.21515 -0.311075 20.0325 3.42225 0.237135 -12.4493 -14.5211 0.620462 -11.5953 -0.94123 -1.05766 0.682255 0.980591 -1.05766 0.682253 0.980595 -0.685816 -1.70161 -2.47893 -27.6569 6.28881 -10.2292 -52.5267 41.394 11.1498 12.778 2.69303 -21.1833 -3.91949 -0.163201 -0.665937 1.76556e-031 -6.36111e-015 1.59028e-015 3.53113e-031 -6.36111e-015 3.18055e-015 21.8135 6.41387 11.8466 27.6292 -24.7184 11.6751 -41.8779 -8.96046 107.402 -33.6469 8.49395 -3.02512 -1.76556e-031 6.36111e-015 1.59028e-015 3.18055e-015 9.54167e-015 1.59028e-015 -2.98729 4.30962 -1.82595 
9.33355 94.0494 -7.33213 -0.867122 -1.2485 12.542 -0.640811 0.245661 0.656422 5.13912 -13.4303 5.39662 0.875937 25.0159 -9.32703 -1.27245 -10.7139 -0.799568 0.913479 -9.7818 0.395732 -7.08823 -3.79578 -4.7356 -0.022562 20.0061 2.13778 0.100003 -12.8061 -15.6326 0.784272 -11.5778 -1.11165 -1.12696 0.484788 1.3185 -1.12797 0.484794 1.31831 -1.17116 -1.93516 -2.90887 -27.7081 6.31588 -9.56235 -51.8099 41.7929 10.9219 12.9037 3.53104 -20.7036 -4.43146 -0.248285 -0.449316 -1.59028e-015 -6.36111e-015 -1.59028e-015 -3.18055e-015 -3.18056e-015 -1.59028e-015 19.7468 6.72941 13.5938 29.287 -26.4016 19.9232 -45.6475 -8.28172 103.917 -33.7025 9.14836 -4.98359 -1.32417e-031 -3.18055e-015 -2.38542e-015 3.18055e-015 -3.18056e-015 -0 -2.68986 4.5379 -2.44496 
9.27325 94.1241 -7.32074 -0.784564 -0.365978 15.2842 -0.736774 0.103232 0.874869 4.54032 -14.3918 4.45064 1.13166 24.4043 -10.2995 -1.27228 -9.93405 -1.64948 0.897635 -9.84246 0.189675 -7.14451 -3.54132 -5.25863 0.320937 19.5255 0.390968 0.112949 -12.9085 -16.3608 0.868944 -11.5593 -1.22131 -1.29556 0.196485 1.75537 -1.29556 0.196484 1.75537 -1.54309 -1.75611 -3.1234 -27.8034 6.12038 -9.42956 -51.0457 42.0059 10.9144 12.7656 3.07062 -20.818 -4.52848 -0.206652 -0.10943 -1.59028e-015 0 1.59028e-015 1.59028e-015 0 1.59028e-015 17.868 6.45792 14.8897 30.0979 -26.2803 28.1745 -48.9975 -5.13381 97.9031 -36.0497 9.56821 -5.06507 -3.18055e-015 6.36111e-015 -4.96962e-015 -1.59028e-015 9.54167e-015 -6.16232e-015 -2.04792 4.16446 -2.9322 
